<svg width="169" height="158" viewBox="0 0 169 158" fill="none" xmlns="http://www.w3.org/2000/svg">
<path d="M75.405 1.93472C44.205 8.60139 19.805 32.8681 14.0717 63.2681C12.205 72.7347 11.405 82.4681 12.605 82.4681C12.8717 82.4681 15.6717 81.4014 18.8717 80.2014C23.2717 78.6014 29.1383 78.0681 42.4717 77.9347H60.0717V51.0014C60.0717 36.0681 60.4717 23.6681 61.1383 23.4014C61.6717 23.1347 67.005 25.1347 73.1383 27.9347L84.0717 33.1347V59.8014C84.0717 76.7347 84.605 86.4681 85.405 86.4681C86.205 86.4681 86.7383 73.8014 86.7383 51.1347C86.7383 31.6681 87.1383 15.8014 87.5383 15.8014C88.0717 15.8014 94.3383 19.4014 101.672 23.8014C108.872 28.2014 115.138 31.8014 115.405 31.8014C115.672 31.8014 118.872 33.5347 122.338 35.8014L128.605 39.8014H124.338C120.205 39.8014 120.205 39.8014 119.805 47.6681L119.405 55.6681L109.805 49.8014L100.072 43.8014V68.4681C100.072 83.4014 100.605 93.2681 101.405 93.8014C102.338 94.3347 102.738 86.4681 102.738 71.1347C102.738 50.8681 103.005 47.6681 104.738 48.3347C105.805 48.7347 112.072 52.7347 118.738 57.1347C130.338 65.0014 133.538 68.3347 128.072 66.8681C125.405 66.2014 125.405 66.6014 125.672 85.9347L126.072 105.801L131.005 106.601C138.205 107.801 151.538 105.535 159.405 101.935C165.672 99.1347 166.472 98.3347 167.138 93.6681C167.672 90.7347 168.072 84.2014 168.072 79.1347C167.938 39.9347 142.205 9.13472 103.138 1.66806C91.1383 -0.59861 87.5383 -0.59861 75.405 1.93472Z" fill="#2A78B4"/>
<path d="M30.0717 83.8014C20.8717 85.2681 16.4717 87.1347 9.93832 92.4681C1.27166 99.6681 -2.06168 109.801 1.27166 118.868C4.60499 127.668 19.405 138.468 28.0717 138.468C31.2717 138.468 31.2717 138.335 27.1383 135.801C24.7383 134.468 21.9383 131.668 20.605 129.801C18.7383 127.001 18.7383 125.801 20.0717 122.468C22.205 117.401 28.205 112.335 36.7383 108.335C48.3383 102.868 66.3383 104.468 100.072 113.668C124.072 120.335 147.805 118.201 159.405 108.468L163.405 105.001L158.472 107.001C150.338 110.201 134.738 111.935 126.072 110.468C115.405 108.735 110.205 106.868 100.872 101.401C77.405 87.6681 49.2717 80.7347 30.0717 83.8014Z" fill="#0C3B70"/>
<path d="M155.138 115.135C141.272 126.068 121.005 128.335 94.7383 121.801C72.7383 116.335 51.005 117.401 34.4717 124.735C31.6717 125.935 29.405 127.268 29.405 127.801C29.405 129.268 41.6717 140.335 47.805 144.468L53.405 148.201L57.005 144.468C65.6717 135.801 78.4717 133.135 110.472 133.135C140.605 133.135 151.005 129.401 158.472 116.068C160.205 113.001 161.405 110.468 161.138 110.601C160.872 110.601 158.205 112.735 155.138 115.135Z" fill="#0C3B70"/>
<path d="M139.405 136.335C134.738 138.601 130.605 139.135 108.738 139.801C86.3383 140.468 82.7383 140.868 78.0717 143.401C71.405 146.868 67.1383 151.401 68.8717 153.135C69.5383 153.801 73.405 155.001 77.2717 155.801C96.205 159.401 115.672 155.001 134.072 143.001C146.738 134.735 149.538 131.135 139.405 136.335Z" fill="#0C3B70"/>
</svg>
